<svg id="Capa_1" data-name="Capa 1" xmlns="http://www.w3.org/2000/svg" viewBox="0 0 260.37 286.33"><defs><style>.cls-1,.cls-4{fill:#fff;}.cls-1,.cls-2,.cls-4{stroke:#000;stroke-miterlimit:10;}.cls-2{fill:#f56735;}.cls-3{fill:#f4300f;}.cls-4{font-size:204.57px;font-family:CopperplateGothic-Bold, Copperplate Gothic Bold;font-weight:700;}.cls-5{fill:#eed7c8;}.cls-6{fill:#f4e1bf;}.cls-7{fill:#f1d5b3;}</style></defs><path class="cls-1" d="M21.86,57.58" transform="translate(-21.32 -6.85)"/><path class="cls-1" d="M16.41,69.4" transform="translate(-21.32 -6.85)"/><polygon class="cls-2" points="0.54 50.72 128.72 0.54 259.83 50.72 241.43 219.68 128.72 285.75 18.94 226.37 0.54 50.72"/><polygon class="cls-3" points="129.97 3.25 129.97 283.04 240.53 218.22 258.58 52.48 129.97 3.25"/><path class="cls-3" d="M181.88,19.58" transform="translate(-21.32 -6.85)"/><text class="cls-4" transform="translate(59.43 205.34) scale(0.87 1)">A</text><path class="cls-5" d="M151.5,77" transform="translate(-21.32 -6.85)"/><path class="cls-6" d="M151.5,77" transform="translate(-21.32 -6.85)"/><path class="cls-7" d="M151.69,106.28V77.47h20.38v.47s-6,3.21-4.9,9.21a25.12,25.12,0,0,0,1.14,3.8c.59,1.3,4.55,10.67,4.55,10.67l13.56,31.56,17.92,41.72L215,199.79s4,9.69,9.69,10.47v.43H183.91v-.52s9.62-2.14,3.77-14.17l-8.37-20-27.81-.1V160.14H173Z" transform="translate(-21.32 -6.85)"/><path class="cls-7" d="M119.61,106.82" transform="translate(-21.32 -6.85)"/></svg>