<svg id="Capa_1" data-name="Capa 1" xmlns="http://www.w3.org/2000/svg" viewBox="0 0 258.08 89.37"><defs><style>.cls-1{fill:#fff;}.cls-1,.cls-2,.cls-3,.cls-4,.cls-5{stroke:#2196F3;stroke-miterlimit:10;}.cls-1,.cls-3{stroke-width:4px;}.cls-2,.cls-3,.cls-4{fill:none;}.cls-4{stroke-width:2px;}.cls-5{stroke-width:0.25px;}</style></defs><polygon class="cls-1" points="68.76 87.37 105.83 2 255.1 2 219.98 87.37 68.76 87.37"/><line class="cls-2" x1="36.56" y1="8.34" x2="103.08" y2="8.34"/><line class="cls-2" x1="10.65" y1="67.83" x2="77.16" y2="67.83"/><line class="cls-2" x1="27.78" y1="29.32" x2="93.05" y2="29.32"/><line class="cls-2" x1="10.65" y1="14.68" x2="100.32" y2="14.68"/><line class="cls-2" x1="31.68" y1="50.29" x2="84.86" y2="50.29"/><line class="cls-2" x1="2.41" y1="37.61" x2="90.36" y2="37.61"/><line class="cls-2" y1="59.07" x2="80.91" y2="59.07"/><line class="cls-2" x1="5.37" y1="84.44" x2="69.76" y2="84.44"/><polyline class="cls-3" points="105.83 2 161.93 44.68 255.1 2"/><path class="cls-4" d="M216.47,175.88h16.39A3.22,3.22,0,0,0,235.8,174l6.43-14.55a3.22,3.22,0,0,0-2.94-4.51H222.9a3.21,3.21,0,0,0-2.94,1.92l-6.43,14.55A3.21,3.21,0,0,0,216.47,175.88Z" transform="translate(-20.09 -98.76)"/><path class="cls-5" d="M227.33,163.32l1.51,0-2.23,6.4a4.35,4.35,0,0,1-4.41,3.15,5.26,5.26,0,0,1-1.49-.17l.5-.94a3.76,3.76,0,0,0,1.18.15c1.3,0,2.22-.51,2.81-2.27Z" transform="translate(-20.09 -98.76)"/><path class="cls-5" d="M228.23,171.25a4.35,4.35,0,0,0,2.25.52,2.92,2.92,0,0,0,2.78-1.51c.33-.82,0-1.29-1.29-1.75-1.57-.52-2.4-1.3-1.91-2.64.55-1.51,2.44-2.63,4.61-2.59a4.2,4.2,0,0,1,2.22.51l-.8,1a3.56,3.56,0,0,0-1.88-.48,2.65,2.65,0,0,0-2.64,1.42c-.33.89.17,1.32,1.47,1.81,1.56.59,2.16,1.31,1.62,2.6s-2.18,2.47-4.62,2.53a5.16,5.16,0,0,1-2.51-.48Z" transform="translate(-20.09 -98.76)"/></svg>