<svg xmlns="http://www.w3.org/2000/svg" viewBox="0 0 282.59 108.21"><defs><style>.cls-1{fill:#4fa0ca;}.cls-1,.cls-2{stroke:#000;stroke-width:2px;}.cls-1,.cls-2,.cls-3{stroke-miterlimit:10;}.cls-2,.cls-4{fill:#fff;}.cls-3{fill:none;stroke:#01a0c6;stroke-width:4px;}</style></defs><g id="Capa_1" data-name="Capa 1"><polygon class="cls-1" points="61.37 89.85 61.37 56.12 84.34 40.23 106.09 56.36 106.09 89.85 83.73 106.96 61.37 89.85"/><polygon class="cls-2" points="143.38 106.96 121.74 90.58 121.74 56.85 144.22 40.23 151.07 44.39 151.07 1.86 166.95 12.37 166.95 90.83 143.38 106.96"/><polygon class="cls-2" points="204.59 106.96 219.5 95.47 196.53 78.12 196.53 67.85 204.1 62.23 211.68 68.34 211.68 78.85 226.59 68.09 226.59 57.83 204.84 40.23 182.35 56.61 182.35 90.83 204.59 106.96"/><polygon class="cls-1" points="203.78 79.42 199.58 76.16 199.58 69.89 203.78 66.63 208.05 69.72 208.05 76 203.78 79.42"/><path class="cls-3" d="M260,146.55v20.69c0,9.31-7,4.14-7,4.14l-6.66-4.14V143.45l20.92-12.67,20,12.15v23.79l-20.44,12.67-5.55-3.88" transform="translate(-6.71 -83.79)"/><path class="cls-3" d="M267.48,162.46c.38,3.08,2.24,5.49,4.94,5.79,2.46.28,6.17-1.14,6.4-4.5.46-6.45-6.92-4.9-9.81-7.37a4.7,4.7,0,0,1-.67-6c1.17-1.7,3.3-1.92,5.09-1.72,2.34.26,3.78,2,5,4.23" transform="translate(-6.71 -83.79)"/></g><g id="trazado"><path class="cls-4" d="M-104.29,29.86" transform="translate(-6.71 -83.79)"/><polygon class="cls-2" points="1 100.36 16.4 89.85 16.4 67.85 23.48 62.23 30.82 68.58 30.82 89.36 45.97 100.36 45.97 56.85 23.48 40.23 1 56.36 1 100.36"/></g></svg>